<svg xmlns="http://www.w3.org/2000/svg" xml:space="preserve" width="200" height="200" viewBox="0 0 512.575 512.575"><path d="M59.881 417.644c0-46.933 38.4-85.333 85.333-85.333h76.8c46.933 0 85.333 38.4 85.333 85.333s-38.4 85.333-85.333 85.333h-76.8c-46.933 0-85.333-38.4-85.333-85.333" style="fill:#00da6c" transform="translate(0 1)"/><path d="M59.881 417.644c0-46.933 38.4-85.333 85.333-85.333h-25.6c-46.933 0-85.333 38.4-85.333 85.333s38.4 85.333 85.333 85.333h25.6c-46.933 0-85.333-38.4-85.333-85.333" style="fill:#fff" transform="translate(0 1)"/><path d="M247.615 332.31h-25.6c46.933 0 85.333 38.4 85.333 85.333s-38.4 85.333-85.333 85.333h25.6c46.933 0 85.333-38.4 85.333-85.333s-38.4-85.333-85.333-85.333" style="fill:#00ad55" transform="translate(0 1)"/><path d="M270.655 271.724c-30.72-30.72-30.72-80.213 0-110.933l96.427-95.573c30.72-30.72 53.76-30.72 83.627 0 35.84 35.84 35.84 94.72 0 131.413l-75.093 75.093c-36.695 35.84-69.121 35.84-104.961 0" style="fill:#63d3fd" transform="translate(0 1)"/><path d="M476.308 65.217C459.241 48.15 436.201 40.47 414.015 43.03c11.947 1.707 23.893 9.387 36.693 22.187 35.84 35.84 35.84 94.72 0 131.413l-75.093 75.093c-16.213 16.213-31.573 24.747-46.933 26.453 25.6 1.707 52.907-6.827 72.533-26.453l75.093-75.093c36.693-36.693 36.693-95.573 0-131.413" style="fill:#3db9f9" transform="translate(0 1)"/><path d="M160.575 296.47c-34.987 7.68-75.093-17.067-89.6-60.587L30.868 113.857C16.361 69.484 32.575 23.404 67.561 12.31c34.987-11.093 75.093 15.36 89.6 60.587l40.107 122.027c19.627 51.2 0 91.306-36.693 101.546" style="fill:#ffe100" transform="translate(0 1)"/><path d="M160.575 296.47c-34.987 7.68-75.093-17.067-89.6-60.587L30.868 113.857C16.361 69.484 32.575 23.404 67.561 12.31 22.335 26.817-1.559 75.457 12.948 119.83l40.107 121.173c14.506 44.374 63.146 65.707 107.52 55.467 0-.853 0-.853 0 0 0-.853 0-.853 0 0" style="fill:#fff" transform="translate(0 1)"/><path d="M215.188 188.097 175.081 66.924C160.575 22.55 111.935-2.196 67.561 12.31c34.987-11.093 75.093 15.36 89.6 60.587l40.107 122.027c18.773 48.64 2.56 87.04-29.867 99.84 42.667-16.214 67.414-57.174 47.787-106.667" style="fill:#ffa800" transform="translate(0 1)"/><path d="M34.281 194.217c-3.413 0-6.827-2.56-8.533-5.973-1.707-4.267.853-9.387 5.12-11.093l162.133-52.907c4.267-1.707 9.387.853 11.093 5.12 1.707 4.267-.853 9.387-5.12 11.093L36.841 193.364c-.853.853-1.706.853-2.56.853z"/><path d="M138.388 308.564c-29.013 0-57.173-11.947-75.947-33.28-3.413-3.413-2.56-8.533.853-11.947s8.533-2.56 11.947.853c19.627 23.04 52.907 32.427 83.627 24.747 22.187-5.973 39.253-19.627 48.64-37.547 8.533-17.067 8.533-37.547 0-58.88l-40.96-122.027c-6.827-19.627-19.627-34.987-38.4-44.373-17.92-9.387-39.253-11.093-58.88-4.267-18.773 5.974-34.987 19.627-43.52 37.547s-11.093 39.253-4.267 58.88l33.28 101.547c1.707 4.267-.853 9.387-5.12 11.093-4.267 1.707-9.387-.853-11.093-5.12L4.415 123.39c-7.68-23.893-5.12-48.64 5.973-71.68 11.093-22.187 30.72-39.253 54.613-46.933s49.493-5.973 71.68 5.12 39.253 30.72 46.933 54.613l40.107 121.173c10.24 24.747 10.24 50.347-.853 71.68-11.093 22.187-32.427 39.253-59.733 46.933-8.534 2.561-17.067 4.268-24.747 4.268z"/><path d="M64.148 247.124c0-5.12-3.413-8.533-8.533-8.533s-8.533 3.413-8.533 8.533c0 5.12 3.413 8.533 8.533 8.533s8.533-4.267 8.533-8.533M434.495 247.977c-2.56 0-4.267-.853-5.973-2.56l-120.32-121.173c-3.413-3.413-3.413-8.533 0-11.947 3.413-3.413 8.533-3.413 11.947 0l120.32 121.173c3.413 3.413 3.413 8.533 0 11.947-1.708 1.707-4.268 2.56-5.974 2.56z"/><path d="M335.508 308.564c-27.307 0-52.053-10.24-71.68-29.867-34.133-34.133-34.133-88.747 0-122.88l96.427-95.573c16.213-16.213 38.4-25.6 61.44-25.6s44.373 9.387 61.44 25.6c39.253 39.253 39.253 104.107 0 143.36l-75.093 75.093c-20.481 18.773-45.227 29.867-72.534 29.867zm-58.88-41.814c16.213 16.213 36.693 24.747 58.88 24.747s43.52-8.533 58.88-24.747l75.093-75.093c33.28-33.28 33.28-86.187 0-119.467-11.947-13.653-29.867-20.48-47.787-20.48-17.92 0-35.84 6.827-48.64 20.48l-96.427 95.573c-27.306 27.307-27.306 71.681.001 98.987zM179.348 512.51c-5.12 0-8.533-3.413-8.533-8.533V333.31c0-5.12 3.413-8.533 8.533-8.533 5.12 0 8.533 3.413 8.533 8.533v170.667c0 5.12-4.266 8.533-8.533 8.533z"/><path d="M247.615 512.51h-128c-52.053 0-93.867-41.813-93.867-93.867s41.813-93.867 93.867-93.867h128c52.053 0 93.867 41.813 93.867 93.867s-41.814 93.867-93.867 93.867zm-128-170.666c-42.667 0-76.8 34.133-76.8 76.8s34.133 76.8 76.8 76.8h128c42.667 0 76.8-34.133 76.8-76.8s-34.133-76.8-76.8-76.8h-128z"/></svg>